 http://www.grinshare.com/img/F5E336.png
 
http://www.grinshare.com/img/Q47U60.png
 
http://www.grinshare.com/img/6LX0ZB.png
 
http://www.grinshare.com/img/PV1AA1.png
 
http://www.grinshare.com/img/FENNNN.png

Plot: As a deadly battle rages over Jigsaw's brutal legacy, a group of Jigsaw survivors gathers to seek the support of self-help guru
and fellow survivor Bobby Dagen, a man whose own dark secrets unleash a
new wave of terror.

Cast: Tobin Bell ...
Jigsaw / John
Costas Mandylor Costas Mandylor ...
Hoffman
Betsy Russell Betsy Russell ...
Jill
Cary Elwes Cary Elwes ...
Dr. Gordon
Sean Patrick Flanery Sean Patrick Flanery ...
Bobby
Chad Donella Chad Donella ...
Gibson
Gina Holden Gina Holden ...
Joyce
Laurence Anthony Laurence Anthony ...
Rogers

Format;Avi

File Size:1.81gb

Video: ID : 1
Format : AVC
Format/Info : Advanced Video Codec
Format profile : High@L3.1
Format settings, CABAC : Yes
Format settings, ReFrames : 4 frames
Codec ID : avc1
Codec ID/Info : Advanced Video Coding
Duration : 1h 30mn
Bit rate mode : Variable
Bit rate : 2 500 Kbps
Width : 1 280 pixels
Height : 720 pixels
Display aspect ratio : 16:9
Frame rate mode : Constant
Frame rate : 23.976 fps
Color space : YUV
Chroma subsampling : 4:2:0
Bit depth : 8 bits
Scan type : Progressive
Bits/(Pixel*Frame) : 0.113
Stream size : 1.57 GiB (86%)
Writing library : x264 core 106 r1732 b20059a

Audio: ID : 2
Format : AAC
Format/Info : Advanced Audio Codec
Format version : Version 4
Format profile : LC
Format settings, SBR : No
Codec ID : 40
Duration : 1h 30mn
Bit rate mode : Variable
Bit rate : 384 Kbps
Channel(s) : 6 channels
Channel positions : Front: L C R, Side: L R, LFE
Sampling rate : 48.0 KHz
Stream size : 247 MiB (13%)

Duration:1:30

Release Date:2010

Language:English